<svg id="Layer_1" data-name="Layer 1" xmlns="http://www.w3.org/2000/svg" viewBox="0 0 500 500"><defs><style>.cls-1{fill:#5d5e5f;}.cls-2{opacity:0.3;}.cls-3{fill:none;stroke:#000;stroke-linecap:round;stroke-linejoin:round;stroke-width:20px;}.cls-4{fill:#fff;}.cls-5{opacity:0.15;}.cls-6{fill:#f27721;}</style></defs><title>candle</title><polygon class="cls-1" points="386.05 488.69 55.94 488.69 14.07 401.77 427.91 401.77 386.05 488.69"/><polygon class="cls-2" points="372.71 401.77 330.85 488.69 386.05 488.69 427.91 401.77 372.71 401.77"/><path class="cls-3" d="M427.91,401.77V287a29,29,0,0,1,29-29h0a29,29,0,0,1,29,29v22.19"/><rect class="cls-4" x="145.11" y="176.61" width="151.77" height="225.16"/><rect class="cls-5" x="248.58" y="176.61" width="48.3" height="225.16"/><path class="cls-6" d="M275.47,101.41a54.48,54.48,0,0,1-109,0c0-30.09,54.47-90.1,54.47-90.1S275.47,71.32,275.47,101.41Z"/><path class="cls-2" d="M221,11.31s-1,1.12-2.68,3c14.35,19.34,29.56,43.55,29.56,59.46a54.43,54.43,0,0,1-76.62,49.74,54.46,54.46,0,0,0,104.22-22.14C275.47,71.32,221,11.31,221,11.31Z"/><path class="cls-4" d="M287.24,159.78H154.75a29.62,29.62,0,0,0-29.61,29.62V275a31.74,31.74,0,0,0,31.64,31.64h.43A31.74,31.74,0,0,0,188.85,275v-3.66c0-16.74,12.14-31.86,28.8-33.43a31.94,31.94,0,0,1,34.91,31.71v31.63A31.73,31.73,0,0,0,284.2,332.9h.42a32.32,32.32,0,0,0,32.23-32.22V189.4A29.62,29.62,0,0,0,287.24,159.78Z"/><g class="cls-5"><path d="M287.24,159.78H245.83a29.61,29.61,0,0,1,29.61,29.62V300.68a32.06,32.06,0,0,1-11.63,24.55,31.35,31.35,0,0,0,20.39,7.67h.42a32.32,32.32,0,0,0,32.23-32.22V189.4A29.62,29.62,0,0,0,287.24,159.78Z"/><path d="M221,226.48c-51.33-.12-66.64,28.13-66.64,44.87V275a31.46,31.46,0,0,1-11.15,23.88,31.29,31.29,0,0,0,20.48,7.76h.43A31.74,31.74,0,0,0,195.75,275v-3.66a34.59,34.59,0,0,1,11.41-25.63C200.84,240.17,221,226.48,221,226.48Z"/></g><polygon class="cls-3" points="386.05 488.69 55.94 488.69 14.07 401.77 427.91 401.77 386.05 488.69"/><path class="cls-3" d="M275.47,101.41a54.48,54.48,0,0,1-109,0c0-30.09,54.47-90.1,54.47-90.1S275.47,71.32,275.47,101.41Z"/><path class="cls-3" d="M287.24,159.78H154.75a29.62,29.62,0,0,0-29.61,29.62V275a31.74,31.74,0,0,0,31.64,31.64h.43A31.74,31.74,0,0,0,188.85,275v-3.66c0-16.74,12.14-31.86,28.8-33.43a31.94,31.94,0,0,1,34.91,31.71v31.63A31.73,31.73,0,0,0,284.2,332.9h.42a32.32,32.32,0,0,0,32.23-32.22V189.4A29.62,29.62,0,0,0,287.24,159.78Z"/><path class="cls-3" d="M284.62,332.9h-.42a31.73,31.73,0,0,1-31.64-31.64V269.63a31.94,31.94,0,0,0-34.91-31.71c-16.66,1.57-28.8,16.69-28.8,33.43V275a31.74,31.74,0,0,1-31.64,31.64h-.43a31.49,31.49,0,0,1-11.67-2.25v97.37H296.88V330.46A31.89,31.89,0,0,1,284.62,332.9Z"/></svg>